<?xml version="1.0" encoding="utf-8"?>
<!-- Generated by IcoMoon.io -->
<!DOCTYPE svg PUBLIC "-//W3C//DTD SVG 1.1//EN" "http://www.w3.org/Graphics/SVG/1.1/DTD/svg11.dtd">
<svg version="1.1" xmlns="http://www.w3.org/2000/svg" xmlns:xlink="http://www.w3.org/1999/xlink" width="25" height="32" viewBox="0 0 25 32">
<path d="M6.848 13.152v3.424q0 0.704-0.48 1.216t-1.216 0.48h-3.424q-0.736 0-1.216-0.48t-0.512-1.216v-3.424q0-0.736 0.512-1.216t1.216-0.512h3.424q0.704 0 1.216 0.512t0.48 1.216zM16 13.152v3.424q0 0.704-0.512 1.216t-1.216 0.48h-3.424q-0.704 0-1.216-0.48t-0.48-1.216v-3.424q0-0.736 0.48-1.216t1.216-0.512h3.424q0.736 0 1.216 0.512t0.512 1.216zM25.152 13.152v3.424q0 0.704-0.512 1.216t-1.216 0.48h-3.424q-0.704 0-1.216-0.48t-0.512-1.216v-3.424q0-0.736 0.512-1.216t1.216-0.512h3.424q0.736 0 1.216 0.512t0.512 1.216z"></path>
</svg>
