<?xml version="1.0" encoding="utf-8"?>
<!-- Generated by IcoMoon.io -->
<!DOCTYPE svg PUBLIC "-//W3C//DTD SVG 1.1//EN" "http://www.w3.org/Graphics/SVG/1.1/DTD/svg11.dtd">
<svg version="1.1" xmlns="http://www.w3.org/2000/svg" xmlns:xlink="http://www.w3.org/1999/xlink" width="11" height="32" viewBox="0 0 11 32">
<path d="M11.424 24v2.272q0 0.48-0.32 0.8t-0.832 0.352h-9.12q-0.48 0-0.8-0.352t-0.352-0.8v-2.272q0-0.48 0.352-0.8t0.8-0.352h1.12v-6.848h-1.12q-0.48 0-0.8-0.352t-0.352-0.8v-2.272q0-0.48 0.352-0.8t0.8-0.352h6.848q0.48 0 0.8 0.352t0.352 0.8v10.272h1.12q0.48 0 0.832 0.352t0.32 0.8zM9.152 3.424v3.424q0 0.48-0.352 0.8t-0.8 0.352h-4.576q-0.448 0-0.8-0.352t-0.352-0.8v-3.424q0-0.448 0.352-0.8t0.8-0.352h4.576q0.48 0 0.8 0.352t0.352 0.8z"></path>
</svg>
