<?xml version="1.0" encoding="utf-8"?>
<!-- Generated by IcoMoon.io -->
<!DOCTYPE svg PUBLIC "-//W3C//DTD SVG 1.1//EN" "http://www.w3.org/Graphics/SVG/1.1/DTD/svg11.dtd">
<svg version="1.1" xmlns="http://www.w3.org/2000/svg" xmlns:xlink="http://www.w3.org/1999/xlink" width="27" height="32" viewBox="0 0 27 32">
<path d="M22.848 16.576v-8.576q0-0.48-0.32-0.8t-0.8-0.352h-8.576q-0.768 0-1.056 0.704-0.32 0.736 0.256 1.248l2.56 2.56-9.536 9.536q-0.352 0.352-0.352 0.832t0.352 0.8l1.824 1.824q0.352 0.32 0.8 0.32t0.8-0.32l9.536-9.536 2.592 2.56q0.32 0.352 0.8 0.352 0.192 0 0.448-0.096 0.672-0.32 0.672-1.056zM27.424 7.424v17.152q0 2.112-1.504 3.616t-3.648 1.536h-17.12q-2.144 0-3.648-1.536t-1.504-3.616v-17.152q0-2.112 1.504-3.616t3.648-1.536h17.12q2.144 0 3.648 1.536t1.504 3.616z"></path>
</svg>
