<?xml version="1.0" encoding="utf-8"?>
<!-- Generated by IcoMoon.io -->
<!DOCTYPE svg PUBLIC "-//W3C//DTD SVG 1.1//EN" "http://www.w3.org/Graphics/SVG/1.1/DTD/svg11.dtd">
<svg version="1.1" xmlns="http://www.w3.org/2000/svg" xmlns:xlink="http://www.w3.org/1999/xlink" width="30" height="32" viewBox="0 0 30 32">
<path d="M27.36 10.016q2.656 3.744 2.656 8.48 0 6.208-4.416 10.592t-10.592 4.416-10.592-4.416-4.416-10.592q0-5.76 3.84-10.016t9.536-4.864v-0.032l-0.064-0.096v-1.632h-1.632q-0.672 0-1.184-0.512t-0.48-1.184 0.48-1.152 1.184-0.512h6.656q0.672 0 1.152 0.512t0.512 1.152-0.512 1.184-1.152 0.512h-1.664v1.632l-0.032 0.032v0.096q4.992 0.544 8.64 4 0.032-0.032 0.096-0.128t0.096-0.16l0.864-0.832q0.48-0.48 1.152-0.48t1.184 0.48 0.48 1.184-0.48 1.184l-0.832 0.832q-0.16 0.16-0.48 0.32zM15.008 30.176q4.832 0 8.256-3.424t3.424-8.256-3.424-8.256-8.256-3.392-8.256 3.392-3.424 8.256 3.424 8.256 8.256 3.424zM16.672 16.864h3.328q0.672 0 1.184 0.48t0.512 1.152-0.512 1.184-1.184 0.48h-4.992q-0.672 0-1.184-0.48t-0.512-1.184v-4.992q0-0.704 0.512-1.184t1.184-0.48 1.184 0.48 0.48 1.184v3.36zM15.008 8.48q4.128 0 7.040 2.944t2.944 7.072-2.944 7.072-7.040 2.944-7.072-2.944-2.944-7.072 2.944-7.072 7.072-2.944zM15.008 26.848q3.424 0 5.888-2.464t2.432-5.888-2.432-5.888-5.888-2.432-5.888 2.432-2.432 5.888 2.432 5.888 5.888 2.464z"></path>
</svg>
