<?xml version="1.0" encoding="utf-8"?>
<!-- Generated by IcoMoon.io -->
<!DOCTYPE svg PUBLIC "-//W3C//DTD SVG 1.1//EN" "http://www.w3.org/Graphics/SVG/1.1/DTD/svg11.dtd">
<svg version="1.1" xmlns="http://www.w3.org/2000/svg" xmlns:xlink="http://www.w3.org/1999/xlink" width="32" height="32" viewBox="0 0 32 32">
<path d="M18.272 8.064l5.664 5.664-10.208 10.208-5.664-5.664zM14.528 25.536l11.040-11.008q0.32-0.352 0.32-0.8t-0.32-0.832l-6.464-6.464q-0.32-0.32-0.832-0.32t-0.8 0.32l-11.008 11.040q-0.352 0.352-0.352 0.8t0.352 0.8l6.464 6.464q0.32 0.352 0.8 0.352t0.8-0.352zM30.4 14.176l-16.192 16.224q-0.672 0.64-1.632 0.64t-1.6-0.64l-2.272-2.24q1.024-1.024 1.024-2.432t-1.024-2.432-2.432-1.024-2.4 1.024l-2.24-2.272q-0.672-0.64-0.672-1.6t0.672-1.632l16.192-16.16q0.672-0.672 1.6-0.672t1.632 0.672l2.24 2.208q-1.024 1.024-1.024 2.432t1.024 2.432 2.432 1.024 2.432-1.024l2.24 2.24q0.64 0.672 0.64 1.632t-0.64 1.6z"></path>
</svg>
