<svg xmlns:svg="http://www.w3.org/2000/svg" xmlns="http://www.w3.org/2000/svg" viewBox="0 0 8.4666665 8.4666669" version="1.1" x="0px" y="0px">
  <g transform="translate(0,-288.53332)">
    <path  d="m 2.5135415,288.93022 a 0.1323049,0.13230491 0 0 0 -0.091982,0.22687 l 1.3642579,1.36425 a 0.59531252,0.58999536 0 0 0 -0.1477963,0.39223 l 1.1906251,0 a 0.59531252,0.58999536 0 0 0 -0.1472777,-0.39223 l 1.3642578,-1.36425 a 0.1323049,0.13230491 0 0 0 -0.096118,-0.22687 0.1323049,0.13230491 0 0 0 -0.09095,0.0398 l -1.3957803,1.39578 a 0.59531252,0.58999536 0 0 0 -0.4588881,-5.3e-4 l -1.3952617,-1.39526 a 0.1323049,0.13230491 0 0 0 -0.095086,-0.0398 z"/>
  <path  d="m 1.3229165,291.31147 c -0.3663077,0 -0.66145835,0.29515 -0.66145835,0.66146 l 0,3.96927 c 0,0.36632 0.29515065,0.66094 0.66145835,0.66094 l 5.8213494,0 c 0.3663077,0 0.6609424,-0.29462 0.6609424,-0.66094 l 0,-3.96927 c 0,-0.36631 -0.2946347,-0.66146 -0.6609424,-0.66146 z m 0.5291667,0.52917 3.5718751,0 c 0.3664505,0 0.6614583,0.29501 0.6614583,0.66146 l 0,2.91042 c 0,0.36644 -0.2950078,0.66145 -0.6614583,0.66145 l -3.5718751,0 c -0.3664506,0 -0.6614584,-0.29501 -0.6614584,-0.66145 l 0,-2.91042 c 0,-0.36645 0.2950078,-0.66146 0.6614584,-0.66146 z m 4.7645665,0.39688 0.6578415,0 a 0.13230489,0.1323049 0 1 1 0,0.26458 l -0.6578415,0 a 0.13230489,0.1323049 0 1 1 0,-0.26458 z m 0,0.52916 0.6578415,0 a 0.1323049,0.13230491 0 1 1 0,0.26459 l -0.6578415,0 a 0.1323049,0.13230491 0 1 1 0,-0.26459 z m 0,0.52917 0.6578415,0 a 0.13230489,0.1323049 0 1 1 0,0.26458 l -0.6578415,0 a 0.13230489,0.1323049 0 1 1 0,-0.26458 z m 0.3286628,0.79375 a 0.26458334,0.26458336 0 0 1 0.2645833,0.26458 0.26458334,0.26458336 0 0 1 -0.2645833,0.26459 0.26458334,0.26458336 0 0 1 -0.2645834,-0.26459 0.26458334,0.26458336 0 0 1 0.2645834,-0.26458 z m 0,1.05833 a 0.26458334,0.26458336 0 0 1 0.2645833,0.26459 0.26458334,0.26458336 0 0 1 -0.2645833,0.26458 0.26458334,0.26458336 0 0 1 -0.2645834,-0.26458 0.26458334,0.26458336 0 0 1 0.2645834,-0.26459 z"/>
  </g>
</svg>
