<?xml version="1.0" encoding="utf-8"?>
<!-- Generated by IcoMoon.io -->
<!DOCTYPE svg PUBLIC "-//W3C//DTD SVG 1.1//EN" "http://www.w3.org/Graphics/SVG/1.1/DTD/svg11.dtd">
<svg version="1.1" xmlns="http://www.w3.org/2000/svg" xmlns:xlink="http://www.w3.org/1999/xlink" width="34" height="32" viewBox="0 0 34 32">
<path d="M6.848 28.576v-2.304q0-0.448-0.32-0.8t-0.8-0.32h-2.304q-0.448 0-0.8 0.32t-0.352 0.8v2.304q0 0.448 0.352 0.8t0.8 0.352h2.304q0.448 0 0.8-0.352t0.32-0.8zM6.848 21.728v-2.304q0-0.448-0.32-0.8t-0.8-0.352h-2.304q-0.448 0-0.8 0.352t-0.352 0.8v2.304q0 0.448 0.352 0.8t0.8 0.32h2.304q0.448 0 0.8-0.32t0.32-0.8zM6.848 14.848v-2.272q0-0.48-0.32-0.8t-0.8-0.352h-2.304q-0.448 0-0.8 0.352t-0.352 0.8v2.272q0 0.48 0.352 0.8t0.8 0.352h2.304q0.448 0 0.8-0.352t0.32-0.8zM25.152 28.576v-9.152q0-0.448-0.352-0.8t-0.8-0.352h-13.728q-0.448 0-0.8 0.352t-0.32 0.8v9.152q0 0.448 0.32 0.8t0.8 0.352h13.728q0.48 0 0.8-0.352t0.352-0.8zM6.848 8v-2.272q0-0.48-0.32-0.832t-0.8-0.32h-2.304q-0.448 0-0.8 0.32t-0.352 0.832v2.272q0 0.448 0.352 0.8t0.8 0.352h2.304q0.448 0 0.8-0.352t0.32-0.8zM32 28.576v-2.304q0-0.448-0.352-0.8t-0.8-0.32h-2.272q-0.48 0-0.8 0.32t-0.352 0.8v2.304q0 0.448 0.352 0.8t0.8 0.352h2.272q0.48 0 0.8-0.352t0.352-0.8zM25.152 14.848v-9.12q0-0.48-0.352-0.832t-0.8-0.32h-13.728q-0.448 0-0.8 0.32t-0.32 0.832v9.12q0 0.48 0.32 0.8t0.8 0.352h13.728q0.48 0 0.8-0.352t0.352-0.8zM32 21.728v-2.304q0-0.448-0.352-0.8t-0.8-0.352h-2.272q-0.48 0-0.8 0.352t-0.352 0.8v2.304q0 0.448 0.352 0.8t0.8 0.32h2.272q0.48 0 0.8-0.32t0.352-0.8zM32 14.848v-2.272q0-0.48-0.352-0.8t-0.8-0.352h-2.272q-0.48 0-0.8 0.352t-0.352 0.8v2.272q0 0.48 0.352 0.8t0.8 0.352h2.272q0.48 0 0.8-0.352t0.352-0.8zM32 8v-2.272q0-0.48-0.352-0.832t-0.8-0.32h-2.272q-0.48 0-0.8 0.32t-0.352 0.832v2.272q0 0.448 0.352 0.8t0.8 0.352h2.272q0.48 0 0.8-0.352t0.352-0.8zM34.272 5.152v24q0 1.184-0.832 2.016t-2.016 0.832h-28.576q-1.152 0-2.016-0.832t-0.832-2.016v-24q0-1.184 0.832-2.016t2.016-0.864h28.576q1.184 0 2.016 0.864t0.832 2.016z"></path>
</svg>
